<mxfile host="app.diagrams.net" modified="2024-06-01T03:27:13.751Z" agent="Mozilla/5.0 (Windows NT 10.0; Win64; x64) AppleWebKit/537.36 (KHTML, like Gecko) Chrome/123.0.0.0 Safari/537.36 OPR/109.0.0.0" etag="so_Ik5aoc4iyU9C6Ljjn" version="24.4.13" type="github">
  <diagram name="PÃ¡gina-1" id="wrEIjUecMckKVAjb1k-3">
    <mxGraphModel dx="1345" dy="723" grid="1" gridSize="10" guides="1" tooltips="1" connect="1" arrows="1" fold="1" page="1" pageScale="1" pageWidth="1169" pageHeight="827" math="0" shadow="0">
      <root>
        <mxCell id="0" />
        <mxCell id="1" parent="0" />
        <mxCell id="jxfU9SpQQoRf2CBo2mah-1" value="Edge_detect" style="rounded=0;whiteSpace=wrap;html=1;" vertex="1" parent="1">
          <mxGeometry x="190" y="300" width="120" height="60" as="geometry" />
        </mxCell>
        <mxCell id="jxfU9SpQQoRf2CBo2mah-5" value="" style="html=1;shape=mxgraph.electrical.electro-mechanical.singleSwitch;aspect=fixed;elSwitchState=off;" vertex="1" parent="1">
          <mxGeometry x="40" y="320" width="75" height="20" as="geometry" />
        </mxCell>
        <mxCell id="jxfU9SpQQoRf2CBo2mah-6" style="edgeStyle=orthogonalEdgeStyle;rounded=0;orthogonalLoop=1;jettySize=auto;html=1;exitX=1;exitY=0.8;exitDx=0;exitDy=0;entryX=0;entryY=0.595;entryDx=0;entryDy=0;entryPerimeter=0;" edge="1" parent="1" source="jxfU9SpQQoRf2CBo2mah-5" target="jxfU9SpQQoRf2CBo2mah-1">
          <mxGeometry relative="1" as="geometry" />
        </mxCell>
        <mxCell id="jxfU9SpQQoRf2CBo2mah-7" value="Edge_detect" style="rounded=0;whiteSpace=wrap;html=1;" vertex="1" parent="1">
          <mxGeometry x="190" y="210" width="120" height="60" as="geometry" />
        </mxCell>
        <mxCell id="jxfU9SpQQoRf2CBo2mah-8" value="" style="html=1;shape=mxgraph.electrical.electro-mechanical.singleSwitch;aspect=fixed;elSwitchState=off;" vertex="1" parent="1">
          <mxGeometry x="40" y="230" width="75" height="20" as="geometry" />
        </mxCell>
        <mxCell id="jxfU9SpQQoRf2CBo2mah-9" style="edgeStyle=orthogonalEdgeStyle;rounded=0;orthogonalLoop=1;jettySize=auto;html=1;exitX=1;exitY=0.8;exitDx=0;exitDy=0;entryX=0;entryY=0.595;entryDx=0;entryDy=0;entryPerimeter=0;" edge="1" parent="1" source="jxfU9SpQQoRf2CBo2mah-8" target="jxfU9SpQQoRf2CBo2mah-7">
          <mxGeometry relative="1" as="geometry" />
        </mxCell>
        <mxCell id="jxfU9SpQQoRf2CBo2mah-51" style="edgeStyle=none;rounded=0;orthogonalLoop=1;jettySize=auto;html=1;exitX=1;exitY=0.25;exitDx=0;exitDy=0;entryX=0;entryY=0.25;entryDx=0;entryDy=0;" edge="1" parent="1" source="jxfU9SpQQoRf2CBo2mah-16" target="jxfU9SpQQoRf2CBo2mah-50">
          <mxGeometry relative="1" as="geometry">
            <Array as="points">
              <mxPoint x="560" y="240" />
              <mxPoint x="560" y="305" />
            </Array>
          </mxGeometry>
        </mxCell>
        <mxCell id="jxfU9SpQQoRf2CBo2mah-16" value="&lt;div style=&quot;&quot;&gt;&lt;span style=&quot;background-color: initial;&quot;&gt;Pong_fms&lt;/span&gt;&lt;/div&gt;" style="whiteSpace=wrap;html=1;aspect=fixed;align=right;" vertex="1" parent="1">
          <mxGeometry x="450" y="220" width="80" height="80" as="geometry" />
        </mxCell>
        <mxCell id="jxfU9SpQQoRf2CBo2mah-157" style="edgeStyle=none;rounded=0;orthogonalLoop=1;jettySize=auto;html=1;exitX=0;exitY=0.5;exitDx=0;exitDy=0;entryX=0;entryY=0.5;entryDx=0;entryDy=0;jumpStyle=arc;dashed=1;" edge="1" parent="1" target="jxfU9SpQQoRf2CBo2mah-21">
          <mxGeometry relative="1" as="geometry">
            <mxPoint x="400" y="224.96638655462186" as="sourcePoint" />
          </mxGeometry>
        </mxCell>
        <mxCell id="jxfU9SpQQoRf2CBo2mah-21" value="" style="triangle;whiteSpace=wrap;html=1;" vertex="1" parent="1">
          <mxGeometry x="450" y="220" width="10" height="10" as="geometry" />
        </mxCell>
        <mxCell id="jxfU9SpQQoRf2CBo2mah-34" value="&lt;font style=&quot;font-size: 5px;&quot;&gt;Btt0&lt;/font&gt;" style="text;html=1;align=center;verticalAlign=middle;whiteSpace=wrap;rounded=0;" vertex="1" parent="1">
          <mxGeometry x="444" y="250" width="30" height="15" as="geometry" />
        </mxCell>
        <mxCell id="jxfU9SpQQoRf2CBo2mah-35" value="&lt;font style=&quot;font-size: 5px;&quot;&gt;Btt1&lt;/font&gt;" style="text;html=1;align=center;verticalAlign=middle;whiteSpace=wrap;rounded=0;" vertex="1" parent="1">
          <mxGeometry x="444" y="263" width="30" height="15" as="geometry" />
        </mxCell>
        <mxCell id="jxfU9SpQQoRf2CBo2mah-36" value="Edge_detect" style="rounded=0;whiteSpace=wrap;html=1;" vertex="1" parent="1">
          <mxGeometry x="190" y="465" width="120" height="60" as="geometry" />
        </mxCell>
        <mxCell id="jxfU9SpQQoRf2CBo2mah-37" value="" style="html=1;shape=mxgraph.electrical.electro-mechanical.singleSwitch;aspect=fixed;elSwitchState=off;" vertex="1" parent="1">
          <mxGeometry x="40" y="485" width="75" height="20" as="geometry" />
        </mxCell>
        <mxCell id="jxfU9SpQQoRf2CBo2mah-38" style="edgeStyle=orthogonalEdgeStyle;rounded=0;orthogonalLoop=1;jettySize=auto;html=1;exitX=1;exitY=0.8;exitDx=0;exitDy=0;entryX=0;entryY=0.595;entryDx=0;entryDy=0;entryPerimeter=0;" edge="1" parent="1" source="jxfU9SpQQoRf2CBo2mah-37" target="jxfU9SpQQoRf2CBo2mah-36">
          <mxGeometry relative="1" as="geometry" />
        </mxCell>
        <mxCell id="jxfU9SpQQoRf2CBo2mah-39" style="edgeStyle=orthogonalEdgeStyle;rounded=0;orthogonalLoop=1;jettySize=auto;html=1;exitX=1;exitY=0.5;exitDx=0;exitDy=0;" edge="1" parent="1" source="jxfU9SpQQoRf2CBo2mah-40" target="jxfU9SpQQoRf2CBo2mah-43">
          <mxGeometry relative="1" as="geometry" />
        </mxCell>
        <mxCell id="jxfU9SpQQoRf2CBo2mah-40" value="Edge_detect" style="rounded=0;whiteSpace=wrap;html=1;" vertex="1" parent="1">
          <mxGeometry x="190" y="375" width="120" height="60" as="geometry" />
        </mxCell>
        <mxCell id="jxfU9SpQQoRf2CBo2mah-41" value="" style="html=1;shape=mxgraph.electrical.electro-mechanical.singleSwitch;aspect=fixed;elSwitchState=off;" vertex="1" parent="1">
          <mxGeometry x="40" y="395" width="75" height="20" as="geometry" />
        </mxCell>
        <mxCell id="jxfU9SpQQoRf2CBo2mah-42" style="edgeStyle=orthogonalEdgeStyle;rounded=0;orthogonalLoop=1;jettySize=auto;html=1;exitX=1;exitY=0.8;exitDx=0;exitDy=0;entryX=0;entryY=0.595;entryDx=0;entryDy=0;entryPerimeter=0;" edge="1" parent="1" source="jxfU9SpQQoRf2CBo2mah-41" target="jxfU9SpQQoRf2CBo2mah-40">
          <mxGeometry relative="1" as="geometry" />
        </mxCell>
        <mxCell id="jxfU9SpQQoRf2CBo2mah-52" style="edgeStyle=none;rounded=0;orthogonalLoop=1;jettySize=auto;html=1;entryX=0;entryY=0.5;entryDx=0;entryDy=0;exitX=1;exitY=0.25;exitDx=0;exitDy=0;" edge="1" parent="1" source="jxfU9SpQQoRf2CBo2mah-43" target="jxfU9SpQQoRf2CBo2mah-50">
          <mxGeometry relative="1" as="geometry">
            <mxPoint x="550" y="420" as="sourcePoint" />
            <Array as="points">
              <mxPoint x="560" y="405" />
              <mxPoint x="560" y="330" />
            </Array>
          </mxGeometry>
        </mxCell>
        <mxCell id="jxfU9SpQQoRf2CBo2mah-43" value="&lt;div style=&quot;&quot;&gt;&lt;span style=&quot;background-color: initial;&quot;&gt;Pong_fms&lt;/span&gt;&lt;/div&gt;" style="whiteSpace=wrap;html=1;aspect=fixed;align=right;" vertex="1" parent="1">
          <mxGeometry x="450" y="385" width="80" height="80" as="geometry" />
        </mxCell>
        <mxCell id="jxfU9SpQQoRf2CBo2mah-44" style="edgeStyle=orthogonalEdgeStyle;rounded=0;orthogonalLoop=1;jettySize=auto;html=1;exitX=1;exitY=0.5;exitDx=0;exitDy=0;entryX=0.019;entryY=0.658;entryDx=0;entryDy=0;entryPerimeter=0;" edge="1" parent="1" source="jxfU9SpQQoRf2CBo2mah-36" target="jxfU9SpQQoRf2CBo2mah-43">
          <mxGeometry relative="1" as="geometry" />
        </mxCell>
        <mxCell id="jxfU9SpQQoRf2CBo2mah-45" value="" style="triangle;whiteSpace=wrap;html=1;" vertex="1" parent="1">
          <mxGeometry x="450" y="385" width="10" height="10" as="geometry" />
        </mxCell>
        <mxCell id="jxfU9SpQQoRf2CBo2mah-46" value="&lt;font style=&quot;font-size: 5px;&quot;&gt;Btt0&lt;/font&gt;" style="text;html=1;align=center;verticalAlign=middle;whiteSpace=wrap;rounded=0;" vertex="1" parent="1">
          <mxGeometry x="444" y="415" width="30" height="15" as="geometry" />
        </mxCell>
        <mxCell id="jxfU9SpQQoRf2CBo2mah-47" value="&lt;font style=&quot;font-size: 5px;&quot;&gt;Btt1&lt;/font&gt;" style="text;html=1;align=center;verticalAlign=middle;whiteSpace=wrap;rounded=0;" vertex="1" parent="1">
          <mxGeometry x="444" y="428" width="30" height="15" as="geometry" />
        </mxCell>
        <mxCell id="jxfU9SpQQoRf2CBo2mah-58" style="edgeStyle=none;rounded=0;orthogonalLoop=1;jettySize=auto;html=1;exitX=1;exitY=0.75;exitDx=0;exitDy=0;entryX=0;entryY=0.25;entryDx=0;entryDy=0;" edge="1" parent="1" source="jxfU9SpQQoRf2CBo2mah-50" target="jxfU9SpQQoRf2CBo2mah-57">
          <mxGeometry relative="1" as="geometry">
            <Array as="points">
              <mxPoint x="770" y="355" />
              <mxPoint x="770" y="440" />
              <mxPoint x="600" y="440" />
              <mxPoint x="600" y="538" />
            </Array>
          </mxGeometry>
        </mxCell>
        <mxCell id="jxfU9SpQQoRf2CBo2mah-50" value="Ball_fms" style="whiteSpace=wrap;html=1;aspect=fixed;" vertex="1" parent="1">
          <mxGeometry x="640" y="280" width="100" height="100" as="geometry" />
        </mxCell>
        <mxCell id="jxfU9SpQQoRf2CBo2mah-53" value="" style="triangle;whiteSpace=wrap;html=1;" vertex="1" parent="1">
          <mxGeometry x="640" y="280" width="10" height="10" as="geometry" />
        </mxCell>
        <mxCell id="jxfU9SpQQoRf2CBo2mah-55" value="&lt;font style=&quot;font-size: 9px;&quot;&gt;r0&lt;/font&gt;" style="text;html=1;align=center;verticalAlign=middle;whiteSpace=wrap;rounded=0;" vertex="1" parent="1">
          <mxGeometry x="630" y="300" width="50" height="10" as="geometry" />
        </mxCell>
        <mxCell id="jxfU9SpQQoRf2CBo2mah-56" value="&lt;font style=&quot;font-size: 9px;&quot;&gt;r1&lt;/font&gt;" style="text;html=1;align=center;verticalAlign=middle;whiteSpace=wrap;rounded=0;" vertex="1" parent="1">
          <mxGeometry x="630" y="325" width="50" height="10" as="geometry" />
        </mxCell>
        <mxCell id="jxfU9SpQQoRf2CBo2mah-62" style="edgeStyle=none;rounded=0;orthogonalLoop=1;jettySize=auto;html=1;exitX=1;exitY=0.25;exitDx=0;exitDy=0;entryX=0;entryY=0.75;entryDx=0;entryDy=0;jumpStyle=arc;" edge="1" parent="1" source="jxfU9SpQQoRf2CBo2mah-57" target="jxfU9SpQQoRf2CBo2mah-50">
          <mxGeometry relative="1" as="geometry">
            <mxPoint x="630" y="410" as="targetPoint" />
            <Array as="points">
              <mxPoint x="800" y="538" />
              <mxPoint x="800" y="500" />
              <mxPoint x="580" y="500" />
              <mxPoint x="580" y="355" />
            </Array>
          </mxGeometry>
        </mxCell>
        <mxCell id="jxfU9SpQQoRf2CBo2mah-107" style="edgeStyle=none;rounded=0;orthogonalLoop=1;jettySize=auto;html=1;exitX=0.999;exitY=0.39;exitDx=0;exitDy=0;exitPerimeter=0;" edge="1" parent="1" source="jxfU9SpQQoRf2CBo2mah-57">
          <mxGeometry relative="1" as="geometry">
            <mxPoint x="970" y="550" as="targetPoint" />
            <mxPoint x="780" y="550" as="sourcePoint" />
          </mxGeometry>
        </mxCell>
        <mxCell id="jxfU9SpQQoRf2CBo2mah-118" style="edgeStyle=none;rounded=0;orthogonalLoop=1;jettySize=auto;html=1;exitX=1;exitY=0.5;exitDx=0;exitDy=0;" edge="1" parent="1" source="jxfU9SpQQoRf2CBo2mah-110">
          <mxGeometry relative="1" as="geometry">
            <mxPoint x="970" y="565" as="targetPoint" />
            <Array as="points" />
          </mxGeometry>
        </mxCell>
        <mxCell id="jxfU9SpQQoRf2CBo2mah-57" value="Score_fms" style="rounded=0;whiteSpace=wrap;html=1;align=left;" vertex="1" parent="1">
          <mxGeometry x="630" y="515" width="120" height="90" as="geometry" />
        </mxCell>
        <mxCell id="jxfU9SpQQoRf2CBo2mah-59" value="&lt;font style=&quot;font-size: 8px;&quot;&gt;Addr&lt;/font&gt;" style="text;html=1;align=center;verticalAlign=middle;whiteSpace=wrap;rounded=0;" vertex="1" parent="1">
          <mxGeometry x="700" y="335" width="60" height="30" as="geometry" />
        </mxCell>
        <mxCell id="jxfU9SpQQoRf2CBo2mah-60" value="&lt;font style=&quot;font-size: 8px;&quot;&gt;Addr&lt;/font&gt;" style="text;html=1;align=center;verticalAlign=middle;whiteSpace=wrap;rounded=0;" vertex="1" parent="1">
          <mxGeometry x="615" y="520" width="60" height="30" as="geometry" />
        </mxCell>
        <mxCell id="jxfU9SpQQoRf2CBo2mah-64" value="&lt;font style=&quot;font-size: 9px;&quot;&gt;Gol&lt;/font&gt;" style="text;html=1;align=center;verticalAlign=middle;whiteSpace=wrap;rounded=0;" vertex="1" parent="1">
          <mxGeometry x="630" y="350" width="50" height="10" as="geometry" />
        </mxCell>
        <mxCell id="jxfU9SpQQoRf2CBo2mah-69" value="" style="triangle;whiteSpace=wrap;html=1;" vertex="1" parent="1">
          <mxGeometry x="630" y="595" width="10" height="10" as="geometry" />
        </mxCell>
        <mxCell id="jxfU9SpQQoRf2CBo2mah-198" style="edgeStyle=none;rounded=0;orthogonalLoop=1;jettySize=auto;html=1;exitX=0;exitY=0.5;exitDx=0;exitDy=0;entryX=0;entryY=0.5;entryDx=0;entryDy=0;dashed=1;" edge="1" parent="1" target="jxfU9SpQQoRf2CBo2mah-70">
          <mxGeometry relative="1" as="geometry">
            <mxPoint x="160" y="215.04347826086956" as="sourcePoint" />
          </mxGeometry>
        </mxCell>
        <mxCell id="jxfU9SpQQoRf2CBo2mah-70" value="" style="triangle;whiteSpace=wrap;html=1;" vertex="1" parent="1">
          <mxGeometry x="190" y="210" width="10" height="10" as="geometry" />
        </mxCell>
        <mxCell id="jxfU9SpQQoRf2CBo2mah-199" style="edgeStyle=none;rounded=0;orthogonalLoop=1;jettySize=auto;html=1;exitX=0;exitY=0.5;exitDx=0;exitDy=0;entryX=0;entryY=0.5;entryDx=0;entryDy=0;dashed=1;" edge="1" parent="1" target="jxfU9SpQQoRf2CBo2mah-71">
          <mxGeometry relative="1" as="geometry">
            <mxPoint x="160" y="305.0434782608696" as="sourcePoint" />
          </mxGeometry>
        </mxCell>
        <mxCell id="jxfU9SpQQoRf2CBo2mah-71" value="" style="triangle;whiteSpace=wrap;html=1;" vertex="1" parent="1">
          <mxGeometry x="190" y="300" width="10" height="10" as="geometry" />
        </mxCell>
        <mxCell id="jxfU9SpQQoRf2CBo2mah-200" style="edgeStyle=none;rounded=0;orthogonalLoop=1;jettySize=auto;html=1;exitX=0;exitY=0.5;exitDx=0;exitDy=0;entryX=0;entryY=0.5;entryDx=0;entryDy=0;dashed=1;" edge="1" parent="1" target="jxfU9SpQQoRf2CBo2mah-72">
          <mxGeometry relative="1" as="geometry">
            <mxPoint x="160" y="380.0434782608696" as="sourcePoint" />
          </mxGeometry>
        </mxCell>
        <mxCell id="jxfU9SpQQoRf2CBo2mah-72" value="" style="triangle;whiteSpace=wrap;html=1;" vertex="1" parent="1">
          <mxGeometry x="190" y="375" width="10" height="10" as="geometry" />
        </mxCell>
        <mxCell id="jxfU9SpQQoRf2CBo2mah-73" value="" style="triangle;whiteSpace=wrap;html=1;" vertex="1" parent="1">
          <mxGeometry x="190" y="465" width="10" height="10" as="geometry" />
        </mxCell>
        <mxCell id="jxfU9SpQQoRf2CBo2mah-83" style="edgeStyle=none;rounded=0;orthogonalLoop=1;jettySize=auto;html=1;exitX=0.5;exitY=0;exitDx=0;exitDy=0;entryX=0;entryY=0.5;entryDx=0;entryDy=0;" edge="1" parent="1" source="jxfU9SpQQoRf2CBo2mah-74" target="jxfU9SpQQoRf2CBo2mah-82">
          <mxGeometry relative="1" as="geometry" />
        </mxCell>
        <mxCell id="jxfU9SpQQoRf2CBo2mah-74" value="&lt;div&gt;&lt;br&gt;&lt;/div&gt;&lt;div&gt;&lt;br&gt;&lt;/div&gt;Sync_mux" style="rounded=0;whiteSpace=wrap;html=1;direction=south;" vertex="1" parent="1">
          <mxGeometry x="860" y="255" width="90" height="150" as="geometry" />
        </mxCell>
        <mxCell id="jxfU9SpQQoRf2CBo2mah-75" value="" style="endArrow=classic;html=1;rounded=0;" edge="1" parent="1">
          <mxGeometry width="50" height="50" relative="1" as="geometry">
            <mxPoint x="770" y="360" as="sourcePoint" />
            <mxPoint x="860" y="360" as="targetPoint" />
          </mxGeometry>
        </mxCell>
        <mxCell id="jxfU9SpQQoRf2CBo2mah-76" value="&lt;font style=&quot;font-size: 8px;&quot;&gt;Addr&lt;/font&gt;" style="text;html=1;align=center;verticalAlign=middle;whiteSpace=wrap;rounded=0;" vertex="1" parent="1">
          <mxGeometry x="480" y="225" width="60" height="30" as="geometry" />
        </mxCell>
        <mxCell id="jxfU9SpQQoRf2CBo2mah-78" value="&lt;font style=&quot;font-size: 8px;&quot;&gt;Addr&lt;/font&gt;" style="text;html=1;align=center;verticalAlign=middle;whiteSpace=wrap;rounded=0;" vertex="1" parent="1">
          <mxGeometry x="490" y="390" width="60" height="30" as="geometry" />
        </mxCell>
        <mxCell id="jxfU9SpQQoRf2CBo2mah-79" value="" style="endArrow=classic;html=1;rounded=0;entryX=0.5;entryY=1;entryDx=0;entryDy=0;" edge="1" parent="1" target="jxfU9SpQQoRf2CBo2mah-74">
          <mxGeometry width="50" height="50" relative="1" as="geometry">
            <mxPoint x="560" y="240" as="sourcePoint" />
            <mxPoint x="700" y="280" as="targetPoint" />
            <Array as="points">
              <mxPoint x="800" y="240" />
              <mxPoint x="800" y="330" />
            </Array>
          </mxGeometry>
        </mxCell>
        <mxCell id="jxfU9SpQQoRf2CBo2mah-80" value="" style="endArrow=classic;html=1;rounded=0;entryX=0.25;entryY=1;entryDx=0;entryDy=0;jumpStyle=arc;" edge="1" parent="1" target="jxfU9SpQQoRf2CBo2mah-74">
          <mxGeometry width="50" height="50" relative="1" as="geometry">
            <mxPoint x="600" y="330" as="sourcePoint" />
            <mxPoint x="700" y="280" as="targetPoint" />
            <Array as="points">
              <mxPoint x="600" y="260" />
              <mxPoint x="830" y="260" />
              <mxPoint x="830" y="293" />
            </Array>
          </mxGeometry>
        </mxCell>
        <mxCell id="jxfU9SpQQoRf2CBo2mah-100" style="edgeStyle=none;rounded=0;orthogonalLoop=1;jettySize=auto;html=1;exitX=1;exitY=0.5;exitDx=0;exitDy=0;entryX=0.25;entryY=1;entryDx=0;entryDy=0;" edge="1" parent="1" source="jxfU9SpQQoRf2CBo2mah-82" target="jxfU9SpQQoRf2CBo2mah-97">
          <mxGeometry relative="1" as="geometry">
            <Array as="points">
              <mxPoint x="1280" y="330" />
              <mxPoint x="1280" y="425" />
            </Array>
          </mxGeometry>
        </mxCell>
        <mxCell id="jxfU9SpQQoRf2CBo2mah-82" value="DPRAM" style="rounded=0;whiteSpace=wrap;html=1;" vertex="1" parent="1">
          <mxGeometry x="1020" y="290" width="140" height="80" as="geometry" />
        </mxCell>
        <mxCell id="jxfU9SpQQoRf2CBo2mah-84" value="&lt;font style=&quot;font-size: 9px;&quot;&gt;r0&lt;/font&gt;" style="text;html=1;align=center;verticalAlign=middle;whiteSpace=wrap;rounded=0;" vertex="1" parent="1">
          <mxGeometry x="840" y="290" width="50" height="10" as="geometry" />
        </mxCell>
        <mxCell id="jxfU9SpQQoRf2CBo2mah-85" value="&lt;font style=&quot;font-size: 9px;&quot;&gt;r1&lt;/font&gt;" style="text;html=1;align=center;verticalAlign=middle;whiteSpace=wrap;rounded=0;" vertex="1" parent="1">
          <mxGeometry x="840" y="325" width="50" height="10" as="geometry" />
        </mxCell>
        <mxCell id="jxfU9SpQQoRf2CBo2mah-86" value="&lt;font style=&quot;font-size: 9px;&quot;&gt;Ball&lt;/font&gt;" style="text;html=1;align=center;verticalAlign=middle;whiteSpace=wrap;rounded=0;" vertex="1" parent="1">
          <mxGeometry x="843" y="355" width="50" height="10" as="geometry" />
        </mxCell>
        <mxCell id="jxfU9SpQQoRf2CBo2mah-88" value="&lt;font style=&quot;font-size: 9px;&quot;&gt;Data&lt;/font&gt;" style="text;html=1;align=center;verticalAlign=middle;whiteSpace=wrap;rounded=0;" vertex="1" parent="1">
          <mxGeometry x="910" y="325" width="50" height="10" as="geometry" />
        </mxCell>
        <mxCell id="jxfU9SpQQoRf2CBo2mah-89" value="&lt;font style=&quot;font-size: 9px;&quot;&gt;Sel&lt;/font&gt;" style="text;html=1;align=center;verticalAlign=middle;whiteSpace=wrap;rounded=0;" vertex="1" parent="1">
          <mxGeometry x="860" y="255" width="50" height="10" as="geometry" />
        </mxCell>
        <mxCell id="jxfU9SpQQoRf2CBo2mah-99" style="edgeStyle=none;rounded=0;orthogonalLoop=1;jettySize=auto;html=1;exitX=1;exitY=0.5;exitDx=0;exitDy=0;entryX=0.75;entryY=1;entryDx=0;entryDy=0;" edge="1" parent="1" source="jxfU9SpQQoRf2CBo2mah-91" target="jxfU9SpQQoRf2CBo2mah-97">
          <mxGeometry relative="1" as="geometry">
            <Array as="points">
              <mxPoint x="1280" y="580" />
              <mxPoint x="1280" y="485" />
            </Array>
          </mxGeometry>
        </mxCell>
        <mxCell id="jxfU9SpQQoRf2CBo2mah-143" style="edgeStyle=none;rounded=0;orthogonalLoop=1;jettySize=auto;html=1;exitX=0;exitY=0.5;exitDx=0;exitDy=0;entryX=0;entryY=0.5;entryDx=0;entryDy=0;" edge="1" parent="1" target="jxfU9SpQQoRf2CBo2mah-91">
          <mxGeometry relative="1" as="geometry">
            <mxPoint x="979.9999999999998" y="580.1428571428572" as="sourcePoint" />
          </mxGeometry>
        </mxCell>
        <mxCell id="jxfU9SpQQoRf2CBo2mah-91" value="ROM1" style="rounded=0;whiteSpace=wrap;html=1;" vertex="1" parent="1">
          <mxGeometry x="1020" y="540" width="140" height="80" as="geometry" />
        </mxCell>
        <mxCell id="jxfU9SpQQoRf2CBo2mah-98" style="edgeStyle=none;rounded=0;orthogonalLoop=1;jettySize=auto;html=1;exitX=1;exitY=0.5;exitDx=0;exitDy=0;" edge="1" parent="1" source="jxfU9SpQQoRf2CBo2mah-92" target="jxfU9SpQQoRf2CBo2mah-97">
          <mxGeometry relative="1" as="geometry" />
        </mxCell>
        <mxCell id="jxfU9SpQQoRf2CBo2mah-142" style="edgeStyle=none;rounded=0;orthogonalLoop=1;jettySize=auto;html=1;exitX=0;exitY=0.5;exitDx=0;exitDy=0;entryX=0;entryY=0.5;entryDx=0;entryDy=0;" edge="1" parent="1" target="jxfU9SpQQoRf2CBo2mah-92">
          <mxGeometry relative="1" as="geometry">
            <mxPoint x="979.9999999999998" y="455.1428571428572" as="sourcePoint" />
          </mxGeometry>
        </mxCell>
        <mxCell id="jxfU9SpQQoRf2CBo2mah-92" value="ROM0" style="rounded=0;whiteSpace=wrap;html=1;" vertex="1" parent="1">
          <mxGeometry x="1020" y="415" width="140" height="80" as="geometry" />
        </mxCell>
        <mxCell id="jxfU9SpQQoRf2CBo2mah-116" style="edgeStyle=none;rounded=0;orthogonalLoop=1;jettySize=auto;html=1;exitX=0.5;exitY=0;exitDx=0;exitDy=0;entryX=0;entryY=0.25;entryDx=0;entryDy=0;" edge="1" parent="1" source="jxfU9SpQQoRf2CBo2mah-97" target="jxfU9SpQQoRf2CBo2mah-123">
          <mxGeometry relative="1" as="geometry">
            <mxPoint x="1530" y="455" as="targetPoint" />
          </mxGeometry>
        </mxCell>
        <mxCell id="jxfU9SpQQoRf2CBo2mah-97" value="Mux" style="shape=trapezoid;perimeter=trapezoidPerimeter;whiteSpace=wrap;html=1;fixedSize=1;direction=south;" vertex="1" parent="1">
          <mxGeometry x="1360" y="395" width="60" height="120" as="geometry" />
        </mxCell>
        <mxCell id="jxfU9SpQQoRf2CBo2mah-102" value="&lt;font style=&quot;font-size: 9px;&quot;&gt;Data&lt;/font&gt;" style="text;html=1;align=center;verticalAlign=middle;whiteSpace=wrap;rounded=0;" vertex="1" parent="1">
          <mxGeometry x="1119" y="325" width="50" height="10" as="geometry" />
        </mxCell>
        <mxCell id="jxfU9SpQQoRf2CBo2mah-104" value="&lt;font style=&quot;font-size: 9px;&quot;&gt;Data&lt;/font&gt;" style="text;html=1;align=center;verticalAlign=middle;whiteSpace=wrap;rounded=0;" vertex="1" parent="1">
          <mxGeometry x="1119" y="450" width="50" height="10" as="geometry" />
        </mxCell>
        <mxCell id="jxfU9SpQQoRf2CBo2mah-105" value="&lt;font style=&quot;font-size: 9px;&quot;&gt;Data&lt;/font&gt;" style="text;html=1;align=center;verticalAlign=middle;whiteSpace=wrap;rounded=0;" vertex="1" parent="1">
          <mxGeometry x="1119" y="575" width="50" height="10" as="geometry" />
        </mxCell>
        <mxCell id="jxfU9SpQQoRf2CBo2mah-106" value="&lt;font style=&quot;font-size: 9px;&quot;&gt;Gol&lt;/font&gt;" style="text;html=1;align=center;verticalAlign=middle;whiteSpace=wrap;rounded=0;" vertex="1" parent="1">
          <mxGeometry x="710" y="530" width="50" height="10" as="geometry" />
        </mxCell>
        <mxCell id="jxfU9SpQQoRf2CBo2mah-109" value="&lt;font style=&quot;font-size: 9px;&quot;&gt;Win_j1&lt;/font&gt;" style="text;html=1;align=center;verticalAlign=middle;whiteSpace=wrap;rounded=0;" vertex="1" parent="1">
          <mxGeometry x="700" y="545" width="50" height="10" as="geometry" />
        </mxCell>
        <mxCell id="jxfU9SpQQoRf2CBo2mah-110" value="&lt;font style=&quot;font-size: 9px;&quot;&gt;Win_j2&lt;/font&gt;" style="text;html=1;align=center;verticalAlign=middle;whiteSpace=wrap;rounded=0;" vertex="1" parent="1">
          <mxGeometry x="700" y="560" width="50" height="10" as="geometry" />
        </mxCell>
        <mxCell id="jxfU9SpQQoRf2CBo2mah-112" value="a" style="text;html=1;align=center;verticalAlign=middle;whiteSpace=wrap;rounded=0;" vertex="1" parent="1">
          <mxGeometry x="1336" y="407.5" width="60" height="30" as="geometry" />
        </mxCell>
        <mxCell id="jxfU9SpQQoRf2CBo2mah-113" value="b" style="text;html=1;align=center;verticalAlign=middle;whiteSpace=wrap;rounded=0;" vertex="1" parent="1">
          <mxGeometry x="1336" y="440" width="60" height="30" as="geometry" />
        </mxCell>
        <mxCell id="jxfU9SpQQoRf2CBo2mah-114" value="c" style="text;html=1;align=center;verticalAlign=middle;whiteSpace=wrap;rounded=0;" vertex="1" parent="1">
          <mxGeometry x="1336" y="470" width="60" height="30" as="geometry" />
        </mxCell>
        <mxCell id="jxfU9SpQQoRf2CBo2mah-115" value="S" style="text;html=1;align=center;verticalAlign=middle;whiteSpace=wrap;rounded=0;" vertex="1" parent="1">
          <mxGeometry x="1360" y="480" width="60" height="30" as="geometry" />
        </mxCell>
        <mxCell id="jxfU9SpQQoRf2CBo2mah-117" value="X" style="text;html=1;align=center;verticalAlign=middle;whiteSpace=wrap;rounded=0;" vertex="1" parent="1">
          <mxGeometry x="1385" y="440" width="60" height="30" as="geometry" />
        </mxCell>
        <mxCell id="jxfU9SpQQoRf2CBo2mah-120" value="" style="endArrow=classic;html=1;rounded=0;entryX=0.5;entryY=1;entryDx=0;entryDy=0;" edge="1" parent="1" target="jxfU9SpQQoRf2CBo2mah-115">
          <mxGeometry width="50" height="50" relative="1" as="geometry">
            <mxPoint x="920" y="760" as="sourcePoint" />
            <mxPoint x="1070" y="760" as="targetPoint" />
            <Array as="points">
              <mxPoint x="1390" y="760" />
            </Array>
          </mxGeometry>
        </mxCell>
        <mxCell id="jxfU9SpQQoRf2CBo2mah-121" value="" style="endArrow=none;html=1;rounded=0;jumpStyle=arc;endFill=0;" edge="1" parent="1">
          <mxGeometry width="50" height="50" relative="1" as="geometry">
            <mxPoint x="950" y="550" as="sourcePoint" />
            <mxPoint x="950" y="760" as="targetPoint" />
          </mxGeometry>
        </mxCell>
        <mxCell id="jxfU9SpQQoRf2CBo2mah-122" value="" style="endArrow=none;html=1;rounded=0;endFill=0;" edge="1" parent="1">
          <mxGeometry width="50" height="50" relative="1" as="geometry">
            <mxPoint x="920" y="565" as="sourcePoint" />
            <mxPoint x="920" y="760" as="targetPoint" />
          </mxGeometry>
        </mxCell>
        <mxCell id="jxfU9SpQQoRf2CBo2mah-129" style="edgeStyle=none;rounded=0;orthogonalLoop=1;jettySize=auto;html=1;exitX=1;exitY=0.25;exitDx=0;exitDy=0;entryX=0;entryY=0.25;entryDx=0;entryDy=0;" edge="1" parent="1" source="jxfU9SpQQoRf2CBo2mah-123" target="jxfU9SpQQoRf2CBo2mah-127">
          <mxGeometry relative="1" as="geometry">
            <mxPoint x="1520" y="160" as="targetPoint" />
            <Array as="points">
              <mxPoint x="1760" y="455" />
              <mxPoint x="1760" y="160" />
              <mxPoint x="1520" y="160" />
              <mxPoint x="1520" y="330" />
            </Array>
          </mxGeometry>
        </mxCell>
        <mxCell id="jxfU9SpQQoRf2CBo2mah-123" value="Matrix_controller" style="whiteSpace=wrap;html=1;aspect=fixed;" vertex="1" parent="1">
          <mxGeometry x="1560" y="415" width="160" height="160" as="geometry" />
        </mxCell>
        <mxCell id="jxfU9SpQQoRf2CBo2mah-126" value="&lt;font style=&quot;font-size: 9px;&quot;&gt;Data&lt;/font&gt;" style="text;html=1;align=center;verticalAlign=middle;whiteSpace=wrap;rounded=0;" vertex="1" parent="1">
          <mxGeometry x="1550" y="450" width="50" height="10" as="geometry" />
        </mxCell>
        <mxCell id="jxfU9SpQQoRf2CBo2mah-133" style="edgeStyle=none;rounded=0;orthogonalLoop=1;jettySize=auto;html=1;exitX=1;exitY=0.5;exitDx=0;exitDy=0;entryX=0;entryY=0.75;entryDx=0;entryDy=0;jumpStyle=arc;" edge="1" parent="1" source="jxfU9SpQQoRf2CBo2mah-127" target="jxfU9SpQQoRf2CBo2mah-123">
          <mxGeometry relative="1" as="geometry">
            <Array as="points">
              <mxPoint x="1750" y="345" />
              <mxPoint x="1750" y="400" />
              <mxPoint x="1520" y="400" />
              <mxPoint x="1520" y="535" />
            </Array>
          </mxGeometry>
        </mxCell>
        <mxCell id="jxfU9SpQQoRf2CBo2mah-127" value="Encoder_rows" style="rounded=0;whiteSpace=wrap;html=1;" vertex="1" parent="1">
          <mxGeometry x="1580" y="315" width="120" height="60" as="geometry" />
        </mxCell>
        <mxCell id="jxfU9SpQQoRf2CBo2mah-130" style="edgeStyle=none;rounded=0;orthogonalLoop=1;jettySize=auto;html=1;exitX=0;exitY=0.25;exitDx=0;exitDy=0;entryX=0;entryY=0.25;entryDx=0;entryDy=0;" edge="1" parent="1" target="jxfU9SpQQoRf2CBo2mah-128">
          <mxGeometry relative="1" as="geometry">
            <mxPoint x="1520" y="225.02325581395348" as="sourcePoint" />
          </mxGeometry>
        </mxCell>
        <mxCell id="jxfU9SpQQoRf2CBo2mah-132" style="edgeStyle=none;rounded=0;orthogonalLoop=1;jettySize=auto;html=1;exitX=1;exitY=0.5;exitDx=0;exitDy=0;entryX=0;entryY=0.5;entryDx=0;entryDy=0;jumpStyle=arc;" edge="1" parent="1" source="jxfU9SpQQoRf2CBo2mah-128" target="jxfU9SpQQoRf2CBo2mah-123">
          <mxGeometry relative="1" as="geometry">
            <Array as="points">
              <mxPoint x="1730" y="240" />
              <mxPoint x="1730" y="390" />
              <mxPoint x="1480" y="390" />
              <mxPoint x="1480" y="495" />
            </Array>
          </mxGeometry>
        </mxCell>
        <mxCell id="jxfU9SpQQoRf2CBo2mah-128" value="Encoder_cols" style="rounded=0;whiteSpace=wrap;html=1;" vertex="1" parent="1">
          <mxGeometry x="1580" y="210" width="120" height="60" as="geometry" />
        </mxCell>
        <mxCell id="jxfU9SpQQoRf2CBo2mah-131" value="&lt;font style=&quot;font-size: 9px;&quot;&gt;R_addr&lt;/font&gt;" style="text;html=1;align=center;verticalAlign=middle;whiteSpace=wrap;rounded=0;" vertex="1" parent="1">
          <mxGeometry x="1680" y="450" width="50" height="10" as="geometry" />
        </mxCell>
        <mxCell id="jxfU9SpQQoRf2CBo2mah-134" value="&lt;font style=&quot;font-size: 9px;&quot;&gt;Cols&lt;/font&gt;" style="text;html=1;align=center;verticalAlign=middle;whiteSpace=wrap;rounded=0;" vertex="1" parent="1">
          <mxGeometry x="1550" y="490" width="50" height="10" as="geometry" />
        </mxCell>
        <mxCell id="jxfU9SpQQoRf2CBo2mah-135" value="&lt;font style=&quot;font-size: 9px;&quot;&gt;Rows&lt;/font&gt;" style="text;html=1;align=center;verticalAlign=middle;whiteSpace=wrap;rounded=0;" vertex="1" parent="1">
          <mxGeometry x="1550" y="530" width="50" height="10" as="geometry" />
        </mxCell>
        <mxCell id="jxfU9SpQQoRf2CBo2mah-136" value="" style="triangle;whiteSpace=wrap;html=1;" vertex="1" parent="1">
          <mxGeometry x="860" y="395" width="10" height="10" as="geometry" />
        </mxCell>
        <mxCell id="jxfU9SpQQoRf2CBo2mah-137" value="" style="triangle;whiteSpace=wrap;html=1;" vertex="1" parent="1">
          <mxGeometry x="1020" y="290" width="10" height="10" as="geometry" />
        </mxCell>
        <mxCell id="jxfU9SpQQoRf2CBo2mah-138" value="" style="triangle;whiteSpace=wrap;html=1;" vertex="1" parent="1">
          <mxGeometry x="1560" y="415" width="10" height="10" as="geometry" />
        </mxCell>
        <mxCell id="jxfU9SpQQoRf2CBo2mah-139" value="" style="endArrow=classic;html=1;rounded=0;entryX=0;entryY=0.75;entryDx=0;entryDy=0;" edge="1" parent="1" target="jxfU9SpQQoRf2CBo2mah-82">
          <mxGeometry width="50" height="50" relative="1" as="geometry">
            <mxPoint x="1760" y="450" as="sourcePoint" />
            <mxPoint x="1000" y="380" as="targetPoint" />
            <Array as="points">
              <mxPoint x="1760" y="680" />
              <mxPoint x="980" y="680" />
              <mxPoint x="980" y="350" />
            </Array>
          </mxGeometry>
        </mxCell>
        <mxCell id="jxfU9SpQQoRf2CBo2mah-140" value="&lt;font style=&quot;font-size: 9px;&quot;&gt;Data_in&lt;/font&gt;" style="text;html=1;align=center;verticalAlign=middle;whiteSpace=wrap;rounded=0;" vertex="1" parent="1">
          <mxGeometry x="1010" y="325" width="50" height="10" as="geometry" />
        </mxCell>
        <mxCell id="jxfU9SpQQoRf2CBo2mah-141" value="&lt;font style=&quot;font-size: 9px;&quot;&gt;R_addr&lt;/font&gt;" style="text;html=1;align=center;verticalAlign=middle;whiteSpace=wrap;rounded=0;" vertex="1" parent="1">
          <mxGeometry x="1010" y="345" width="50" height="10" as="geometry" />
        </mxCell>
        <mxCell id="jxfU9SpQQoRf2CBo2mah-144" value="&lt;font style=&quot;font-size: 9px;&quot;&gt;R_addr&lt;/font&gt;" style="text;html=1;align=center;verticalAlign=middle;whiteSpace=wrap;rounded=0;" vertex="1" parent="1">
          <mxGeometry x="1020" y="450" width="50" height="10" as="geometry" />
        </mxCell>
        <mxCell id="jxfU9SpQQoRf2CBo2mah-145" value="&lt;font style=&quot;font-size: 9px;&quot;&gt;R_addr&lt;/font&gt;" style="text;html=1;align=center;verticalAlign=middle;whiteSpace=wrap;rounded=0;" vertex="1" parent="1">
          <mxGeometry x="1020" y="575" width="50" height="10" as="geometry" />
        </mxCell>
        <mxCell id="jxfU9SpQQoRf2CBo2mah-182" style="edgeStyle=none;rounded=0;orthogonalLoop=1;jettySize=auto;html=1;exitX=0;exitY=0.5;exitDx=0;exitDy=0;entryX=0;entryY=0.5;entryDx=0;entryDy=0;dashed=1;jumpStyle=arc;" edge="1" parent="1" target="jxfU9SpQQoRf2CBo2mah-146">
          <mxGeometry relative="1" as="geometry">
            <mxPoint x="840" y="440" as="sourcePoint" />
            <Array as="points">
              <mxPoint x="1000" y="440" />
              <mxPoint x="1000" y="420" />
            </Array>
          </mxGeometry>
        </mxCell>
        <mxCell id="jxfU9SpQQoRf2CBo2mah-146" value="" style="triangle;whiteSpace=wrap;html=1;" vertex="1" parent="1">
          <mxGeometry x="1020" y="415" width="10" height="10" as="geometry" />
        </mxCell>
        <mxCell id="jxfU9SpQQoRf2CBo2mah-181" style="edgeStyle=none;rounded=0;orthogonalLoop=1;jettySize=auto;html=1;exitX=0;exitY=0.5;exitDx=0;exitDy=0;entryX=0;entryY=0.5;entryDx=0;entryDy=0;dashed=1;jumpStyle=arc;" edge="1" parent="1" target="jxfU9SpQQoRf2CBo2mah-147">
          <mxGeometry relative="1" as="geometry">
            <mxPoint x="840" y="520" as="sourcePoint" />
            <Array as="points">
              <mxPoint x="1000" y="520" />
              <mxPoint x="1000" y="545" />
            </Array>
          </mxGeometry>
        </mxCell>
        <mxCell id="jxfU9SpQQoRf2CBo2mah-147" value="" style="triangle;whiteSpace=wrap;html=1;" vertex="1" parent="1">
          <mxGeometry x="1020" y="540" width="10" height="10" as="geometry" />
        </mxCell>
        <mxCell id="jxfU9SpQQoRf2CBo2mah-149" value="" style="endArrow=classic;html=1;rounded=0;exitX=0.997;exitY=0.574;exitDx=0;exitDy=0;exitPerimeter=0;jumpStyle=arc;" edge="1" parent="1" source="jxfU9SpQQoRf2CBo2mah-123">
          <mxGeometry width="50" height="50" relative="1" as="geometry">
            <mxPoint x="1720" y="504" as="sourcePoint" />
            <mxPoint x="1930" y="507" as="targetPoint" />
          </mxGeometry>
        </mxCell>
        <mxCell id="jxfU9SpQQoRf2CBo2mah-148" style="edgeStyle=none;rounded=0;orthogonalLoop=1;jettySize=auto;html=1;exitX=1;exitY=0.5;exitDx=0;exitDy=0;jumpStyle=arc;" edge="1" parent="1" source="jxfU9SpQQoRf2CBo2mah-123">
          <mxGeometry relative="1" as="geometry">
            <mxPoint x="1930.0000000000005" y="495.0303030303031" as="targetPoint" />
          </mxGeometry>
        </mxCell>
        <mxCell id="jxfU9SpQQoRf2CBo2mah-150" value="&lt;font style=&quot;font-size: 9px;&quot;&gt;Cols&lt;/font&gt;" style="text;html=1;align=center;verticalAlign=middle;whiteSpace=wrap;rounded=0;" vertex="1" parent="1">
          <mxGeometry x="1680" y="490" width="50" height="10" as="geometry" />
        </mxCell>
        <mxCell id="jxfU9SpQQoRf2CBo2mah-151" value="&lt;font style=&quot;font-size: 9px;&quot;&gt;Rows&lt;/font&gt;" style="text;html=1;align=center;verticalAlign=middle;whiteSpace=wrap;rounded=0;" vertex="1" parent="1">
          <mxGeometry x="1680" y="500" width="50" height="10" as="geometry" />
        </mxCell>
        <mxCell id="jxfU9SpQQoRf2CBo2mah-154" style="edgeStyle=none;rounded=0;orthogonalLoop=1;jettySize=auto;html=1;exitX=0;exitY=0.5;exitDx=0;exitDy=0;entryX=0;entryY=0.5;entryDx=0;entryDy=0;dashed=1;" edge="1" parent="1" target="jxfU9SpQQoRf2CBo2mah-152">
          <mxGeometry relative="1" as="geometry">
            <mxPoint x="80" y="119.87878787878788" as="sourcePoint" />
          </mxGeometry>
        </mxCell>
        <mxCell id="jxfU9SpQQoRf2CBo2mah-155" value="CLK" style="edgeLabel;html=1;align=center;verticalAlign=middle;resizable=0;points=[];" vertex="1" connectable="0" parent="jxfU9SpQQoRf2CBo2mah-154">
          <mxGeometry x="-0.7554" y="-1" relative="1" as="geometry">
            <mxPoint as="offset" />
          </mxGeometry>
        </mxCell>
        <mxCell id="jxfU9SpQQoRf2CBo2mah-156" style="edgeStyle=none;rounded=0;orthogonalLoop=1;jettySize=auto;html=1;exitX=1;exitY=0.5;exitDx=0;exitDy=0;entryX=0;entryY=0.5;entryDx=0;entryDy=0;jumpStyle=none;dashed=1;" edge="1" parent="1" source="jxfU9SpQQoRf2CBo2mah-152" target="jxfU9SpQQoRf2CBo2mah-45">
          <mxGeometry relative="1" as="geometry">
            <Array as="points">
              <mxPoint x="400" y="120" />
              <mxPoint x="400" y="390" />
            </Array>
          </mxGeometry>
        </mxCell>
        <mxCell id="jxfU9SpQQoRf2CBo2mah-188" style="edgeStyle=none;rounded=0;orthogonalLoop=1;jettySize=auto;html=1;exitX=0;exitY=0.25;exitDx=0;exitDy=0;endArrow=oval;endFill=1;" edge="1" parent="1" source="jxfU9SpQQoRf2CBo2mah-152">
          <mxGeometry relative="1" as="geometry">
            <mxPoint x="120" y="105" as="targetPoint" />
          </mxGeometry>
        </mxCell>
        <mxCell id="jxfU9SpQQoRf2CBo2mah-190" value="Sync_rst" style="edgeLabel;html=1;align=center;verticalAlign=middle;resizable=0;points=[];" vertex="1" connectable="0" parent="jxfU9SpQQoRf2CBo2mah-188">
          <mxGeometry x="-0.1762" y="-1" relative="1" as="geometry">
            <mxPoint x="-71" as="offset" />
          </mxGeometry>
        </mxCell>
        <mxCell id="jxfU9SpQQoRf2CBo2mah-191" style="edgeStyle=none;rounded=0;orthogonalLoop=1;jettySize=auto;html=1;exitX=0;exitY=0.75;exitDx=0;exitDy=0;endArrow=oval;endFill=1;" edge="1" parent="1" source="jxfU9SpQQoRf2CBo2mah-152">
          <mxGeometry relative="1" as="geometry">
            <mxPoint x="120" y="135" as="targetPoint" />
          </mxGeometry>
        </mxCell>
        <mxCell id="jxfU9SpQQoRf2CBo2mah-192" value="Ena_time" style="edgeLabel;html=1;align=center;verticalAlign=middle;resizable=0;points=[];" vertex="1" connectable="0" parent="jxfU9SpQQoRf2CBo2mah-191">
          <mxGeometry x="0.3581" relative="1" as="geometry">
            <mxPoint x="-52" as="offset" />
          </mxGeometry>
        </mxCell>
        <mxCell id="jxfU9SpQQoRf2CBo2mah-152" value="&lt;blockquote style=&quot;margin: 0 0 0 40px; border: none; padding: 0px;&quot;&gt;&lt;/blockquote&gt;&lt;span style=&quot;background-color: initial;&quot;&gt;&lt;div style=&quot;text-align: center;&quot;&gt;&lt;font style=&quot;font-size: 9px;&quot;&gt;&lt;span style=&quot;white-space: pre;&quot;&gt;&#x9;&lt;/span&gt;Timer/counter&lt;/font&gt;&lt;/div&gt;&lt;/span&gt;" style="rounded=0;whiteSpace=wrap;html=1;align=left;" vertex="1" parent="1">
          <mxGeometry x="190" y="90" width="120" height="60" as="geometry" />
        </mxCell>
        <mxCell id="jxfU9SpQQoRf2CBo2mah-19" style="edgeStyle=orthogonalEdgeStyle;rounded=0;orthogonalLoop=1;jettySize=auto;html=1;exitX=1;exitY=0.5;exitDx=0;exitDy=0;jumpStyle=arc;" edge="1" parent="1" source="jxfU9SpQQoRf2CBo2mah-7" target="jxfU9SpQQoRf2CBo2mah-16">
          <mxGeometry relative="1" as="geometry" />
        </mxCell>
        <mxCell id="jxfU9SpQQoRf2CBo2mah-20" style="edgeStyle=orthogonalEdgeStyle;rounded=0;orthogonalLoop=1;jettySize=auto;html=1;exitX=1;exitY=0.5;exitDx=0;exitDy=0;entryX=0.019;entryY=0.658;entryDx=0;entryDy=0;entryPerimeter=0;jumpStyle=arc;" edge="1" parent="1" source="jxfU9SpQQoRf2CBo2mah-1" target="jxfU9SpQQoRf2CBo2mah-16">
          <mxGeometry relative="1" as="geometry" />
        </mxCell>
        <mxCell id="jxfU9SpQQoRf2CBo2mah-159" style="edgeStyle=none;rounded=0;orthogonalLoop=1;jettySize=auto;html=1;exitX=0;exitY=0.5;exitDx=0;exitDy=0;entryX=0;entryY=0.5;entryDx=0;entryDy=0;dashed=1;dashPattern=1 1;jumpStyle=arc;" edge="1" parent="1" target="jxfU9SpQQoRf2CBo2mah-53">
          <mxGeometry relative="1" as="geometry">
            <mxPoint x="396.28984091938406" y="120" as="sourcePoint" />
            <Array as="points">
              <mxPoint x="590" y="120" />
              <mxPoint x="590" y="285" />
            </Array>
          </mxGeometry>
        </mxCell>
        <mxCell id="jxfU9SpQQoRf2CBo2mah-160" style="edgeStyle=none;rounded=0;orthogonalLoop=1;jettySize=auto;html=1;exitX=0;exitY=0.5;exitDx=0;exitDy=0;entryX=0;entryY=0.5;entryDx=0;entryDy=0;jumpStyle=arc;dashed=1;dashPattern=1 2;strokeColor=default;align=center;verticalAlign=middle;fontFamily=Helvetica;fontSize=11;fontColor=default;labelBackgroundColor=default;endArrow=classic;" edge="1" parent="1" target="jxfU9SpQQoRf2CBo2mah-138">
          <mxGeometry relative="1" as="geometry">
            <mxPoint x="580" y="120" as="sourcePoint" />
            <Array as="points">
              <mxPoint x="1440" y="120" />
              <mxPoint x="1440" y="420" />
            </Array>
          </mxGeometry>
        </mxCell>
        <mxCell id="jxfU9SpQQoRf2CBo2mah-164" style="edgeStyle=none;rounded=0;orthogonalLoop=1;jettySize=auto;html=1;exitX=1;exitY=0.5;exitDx=0;exitDy=0;entryX=0;entryY=0.5;entryDx=0;entryDy=0;dashed=1;" edge="1" parent="1" source="jxfU9SpQQoRf2CBo2mah-163" target="jxfU9SpQQoRf2CBo2mah-69">
          <mxGeometry relative="1" as="geometry" />
        </mxCell>
        <mxCell id="jxfU9SpQQoRf2CBo2mah-168" style="edgeStyle=none;rounded=0;orthogonalLoop=1;jettySize=auto;html=1;exitX=0;exitY=0.5;exitDx=0;exitDy=0;entryX=0;entryY=0.5;entryDx=0;entryDy=0;startArrow=oval;startFill=1;dashed=1;" edge="1" parent="1" target="jxfU9SpQQoRf2CBo2mah-163">
          <mxGeometry relative="1" as="geometry">
            <mxPoint x="160.0000000000001" y="599.6666666666667" as="sourcePoint" />
          </mxGeometry>
        </mxCell>
        <mxCell id="jxfU9SpQQoRf2CBo2mah-169" value="CLK" style="edgeLabel;html=1;align=center;verticalAlign=middle;resizable=0;points=[];" vertex="1" connectable="0" parent="jxfU9SpQQoRf2CBo2mah-168">
          <mxGeometry x="-0.5259" y="-1" relative="1" as="geometry">
            <mxPoint as="offset" />
          </mxGeometry>
        </mxCell>
        <mxCell id="jxfU9SpQQoRf2CBo2mah-163" value="Timer/counter&lt;div&gt;BallDelay&lt;/div&gt;" style="rounded=0;whiteSpace=wrap;html=1;" vertex="1" parent="1">
          <mxGeometry x="250" y="570" width="120" height="60" as="geometry" />
        </mxCell>
        <mxCell id="jxfU9SpQQoRf2CBo2mah-165" style="edgeStyle=none;rounded=0;orthogonalLoop=1;jettySize=auto;html=1;entryX=-0.01;entryY=0.914;entryDx=0;entryDy=0;entryPerimeter=0;jumpStyle=arc;dashed=1;" edge="1" parent="1" target="jxfU9SpQQoRf2CBo2mah-50">
          <mxGeometry relative="1" as="geometry">
            <mxPoint x="590" y="600" as="sourcePoint" />
            <mxPoint x="660" y="550" as="targetPoint" />
            <Array as="points">
              <mxPoint x="590" y="371" />
            </Array>
          </mxGeometry>
        </mxCell>
        <mxCell id="jxfU9SpQQoRf2CBo2mah-166" value="&lt;font style=&quot;font-size: 7px;&quot;&gt;Max_tick&lt;/font&gt;" style="text;html=1;align=center;verticalAlign=middle;whiteSpace=wrap;rounded=0;" vertex="1" parent="1">
          <mxGeometry x="270" y="115" width="40" height="10" as="geometry" />
        </mxCell>
        <mxCell id="jxfU9SpQQoRf2CBo2mah-167" value="&lt;font style=&quot;font-size: 7px;&quot;&gt;Max_tick&lt;/font&gt;" style="text;html=1;align=center;verticalAlign=middle;whiteSpace=wrap;rounded=0;" vertex="1" parent="1">
          <mxGeometry x="640" y="365" width="40" height="10" as="geometry" />
        </mxCell>
        <mxCell id="jxfU9SpQQoRf2CBo2mah-170" value="&lt;font style=&quot;font-size: 7px;&quot;&gt;Max_tick&lt;/font&gt;" style="text;html=1;align=center;verticalAlign=middle;whiteSpace=wrap;rounded=0;" vertex="1" parent="1">
          <mxGeometry x="330" y="595" width="40" height="10" as="geometry" />
        </mxCell>
        <mxCell id="jxfU9SpQQoRf2CBo2mah-171" style="edgeStyle=none;rounded=0;orthogonalLoop=1;jettySize=auto;html=1;entryX=0;entryY=0.5;entryDx=0;entryDy=0;startArrow=none;startFill=0;dashed=1;" edge="1" parent="1" target="jxfU9SpQQoRf2CBo2mah-136">
          <mxGeometry relative="1" as="geometry">
            <mxPoint x="444" y="700.33" as="targetPoint" />
            <mxPoint x="210" y="600" as="sourcePoint" />
            <Array as="points">
              <mxPoint x="210" y="720" />
              <mxPoint x="840" y="720" />
              <mxPoint x="840" y="400" />
            </Array>
          </mxGeometry>
        </mxCell>
        <mxCell id="jxfU9SpQQoRf2CBo2mah-178" style="edgeStyle=none;rounded=0;orthogonalLoop=1;jettySize=auto;html=1;exitX=1;exitY=0.5;exitDx=0;exitDy=0;entryX=0;entryY=0.5;entryDx=0;entryDy=0;dashed=1;" edge="1" parent="1" source="jxfU9SpQQoRf2CBo2mah-173" target="jxfU9SpQQoRf2CBo2mah-174">
          <mxGeometry relative="1" as="geometry" />
        </mxCell>
        <mxCell id="jxfU9SpQQoRf2CBo2mah-173" value="Timer0" style="rounded=0;whiteSpace=wrap;html=1;" vertex="1" parent="1">
          <mxGeometry x="399" y="20" width="120" height="60" as="geometry" />
        </mxCell>
        <mxCell id="jxfU9SpQQoRf2CBo2mah-179" style="edgeStyle=none;rounded=0;orthogonalLoop=1;jettySize=auto;html=1;exitX=1;exitY=0.5;exitDx=0;exitDy=0;entryX=0;entryY=0.5;entryDx=0;entryDy=0;dashed=1;" edge="1" parent="1" source="jxfU9SpQQoRf2CBo2mah-174" target="jxfU9SpQQoRf2CBo2mah-175">
          <mxGeometry relative="1" as="geometry" />
        </mxCell>
        <mxCell id="jxfU9SpQQoRf2CBo2mah-174" value="Timer1" style="rounded=0;whiteSpace=wrap;html=1;" vertex="1" parent="1">
          <mxGeometry x="560" y="20" width="120" height="60" as="geometry" />
        </mxCell>
        <mxCell id="jxfU9SpQQoRf2CBo2mah-180" style="edgeStyle=none;rounded=0;orthogonalLoop=1;jettySize=auto;html=1;exitX=1;exitY=0.5;exitDx=0;exitDy=0;entryX=0.5;entryY=0;entryDx=0;entryDy=0;" edge="1" parent="1" source="jxfU9SpQQoRf2CBo2mah-175" target="jxfU9SpQQoRf2CBo2mah-89">
          <mxGeometry relative="1" as="geometry">
            <Array as="points">
              <mxPoint x="885" y="50" />
            </Array>
          </mxGeometry>
        </mxCell>
        <mxCell id="jxfU9SpQQoRf2CBo2mah-175" value="Counter0" style="rounded=0;whiteSpace=wrap;html=1;" vertex="1" parent="1">
          <mxGeometry x="720" y="20" width="120" height="60" as="geometry" />
        </mxCell>
        <mxCell id="jxfU9SpQQoRf2CBo2mah-176" style="edgeStyle=none;rounded=0;orthogonalLoop=1;jettySize=auto;html=1;entryX=0;entryY=0.5;entryDx=0;entryDy=0;dashed=1;" edge="1" parent="1" target="jxfU9SpQQoRf2CBo2mah-173">
          <mxGeometry relative="1" as="geometry">
            <mxPoint x="250" y="40.120000000000005" as="targetPoint" />
            <mxPoint x="150" y="120" as="sourcePoint" />
            <Array as="points">
              <mxPoint x="150" y="50" />
            </Array>
          </mxGeometry>
        </mxCell>
        <mxCell id="jxfU9SpQQoRf2CBo2mah-183" value="" style="triangle;whiteSpace=wrap;html=1;" vertex="1" parent="1">
          <mxGeometry x="190" y="115" width="10" height="10" as="geometry" />
        </mxCell>
        <mxCell id="jxfU9SpQQoRf2CBo2mah-184" style="edgeStyle=none;rounded=0;orthogonalLoop=1;jettySize=auto;html=1;exitX=1;exitY=0.75;exitDx=0;exitDy=0;endArrow=oval;endFill=1;jumpStyle=arc;" edge="1" parent="1" source="jxfU9SpQQoRf2CBo2mah-123">
          <mxGeometry relative="1" as="geometry">
            <mxPoint x="1860" y="534.8571428571428" as="targetPoint" />
          </mxGeometry>
        </mxCell>
        <mxCell id="jxfU9SpQQoRf2CBo2mah-185" value="sync_rst" style="edgeLabel;html=1;align=center;verticalAlign=middle;resizable=0;points=[];" vertex="1" connectable="0" parent="jxfU9SpQQoRf2CBo2mah-184">
          <mxGeometry x="0.5224" relative="1" as="geometry">
            <mxPoint as="offset" />
          </mxGeometry>
        </mxCell>
        <mxCell id="jxfU9SpQQoRf2CBo2mah-186" style="edgeStyle=none;rounded=0;orthogonalLoop=1;jettySize=auto;html=1;exitX=1;exitY=0.75;exitDx=0;exitDy=0;endArrow=oval;endFill=1;jumpStyle=arc;" edge="1" parent="1">
          <mxGeometry relative="1" as="geometry">
            <mxPoint x="1860" y="549.9971428571428" as="targetPoint" />
            <mxPoint x="1720" y="550.14" as="sourcePoint" />
          </mxGeometry>
        </mxCell>
        <mxCell id="jxfU9SpQQoRf2CBo2mah-187" value="Ena_time" style="edgeLabel;html=1;align=center;verticalAlign=middle;resizable=0;points=[];" vertex="1" connectable="0" parent="jxfU9SpQQoRf2CBo2mah-186">
          <mxGeometry x="0.5224" relative="1" as="geometry">
            <mxPoint as="offset" />
          </mxGeometry>
        </mxCell>
        <mxCell id="jxfU9SpQQoRf2CBo2mah-193" value="&lt;font style=&quot;font-size: 7px;&quot;&gt;RST&lt;/font&gt;" style="text;html=1;align=center;verticalAlign=middle;whiteSpace=wrap;rounded=0;" vertex="1" parent="1">
          <mxGeometry x="180" y="100" width="40" height="10" as="geometry" />
        </mxCell>
        <mxCell id="jxfU9SpQQoRf2CBo2mah-194" value="&lt;font style=&quot;font-size: 7px;&quot;&gt;ENA&lt;/font&gt;" style="text;html=1;align=center;verticalAlign=middle;whiteSpace=wrap;rounded=0;" vertex="1" parent="1">
          <mxGeometry x="180" y="130" width="40" height="10" as="geometry" />
        </mxCell>
        <mxCell id="jxfU9SpQQoRf2CBo2mah-196" style="edgeStyle=none;rounded=0;orthogonalLoop=1;jettySize=auto;html=1;dashed=1;entryX=0;entryY=0.5;entryDx=0;entryDy=0;" edge="1" parent="1" target="jxfU9SpQQoRf2CBo2mah-73">
          <mxGeometry relative="1" as="geometry">
            <mxPoint x="180" y="470" as="targetPoint" />
            <mxPoint x="340" y="120" as="sourcePoint" />
            <Array as="points">
              <mxPoint x="340" y="200" />
              <mxPoint x="160" y="200" />
              <mxPoint x="160" y="470" />
            </Array>
          </mxGeometry>
        </mxCell>
        <mxCell id="jxfU9SpQQoRf2CBo2mah-202" value="sync_rst" style="edgeLabel;html=1;align=center;verticalAlign=middle;resizable=0;points=[];" vertex="1" connectable="0" parent="1">
          <mxGeometry x="1689.9999445543958" y="535.0013265871894" as="geometry" />
        </mxCell>
        <mxCell id="jxfU9SpQQoRf2CBo2mah-203" value="Ena_time" style="edgeLabel;html=1;align=center;verticalAlign=middle;resizable=0;points=[];" vertex="1" connectable="0" parent="1">
          <mxGeometry x="1689.9999445543958" y="550.0013265871894" as="geometry" />
        </mxCell>
        <mxCell id="jxfU9SpQQoRf2CBo2mah-205" style="edgeStyle=none;rounded=0;orthogonalLoop=1;jettySize=auto;html=1;exitX=1;exitY=0.877;exitDx=0;exitDy=0;exitPerimeter=0;jumpStyle=arc;" edge="1" parent="1" source="jxfU9SpQQoRf2CBo2mah-57">
          <mxGeometry relative="1" as="geometry">
            <mxPoint x="1680" y="780" as="targetPoint" />
            <mxPoint x="760" y="593" as="sourcePoint" />
            <Array as="points">
              <mxPoint x="780" y="594" />
              <mxPoint x="780" y="780" />
            </Array>
          </mxGeometry>
        </mxCell>
        <mxCell id="jxfU9SpQQoRf2CBo2mah-204" style="edgeStyle=none;rounded=0;orthogonalLoop=1;jettySize=auto;html=1;exitX=1;exitY=0.75;exitDx=0;exitDy=0;jumpStyle=arc;" edge="1" parent="1" source="jxfU9SpQQoRf2CBo2mah-57">
          <mxGeometry relative="1" as="geometry">
            <mxPoint x="1680" y="700" as="targetPoint" />
            <Array as="points">
              <mxPoint x="800" y="583" />
              <mxPoint x="800" y="700" />
              <mxPoint x="1240" y="700" />
            </Array>
          </mxGeometry>
        </mxCell>
        <mxCell id="jxfU9SpQQoRf2CBo2mah-206" value="&lt;font style=&quot;font-size: 9px;&quot;&gt;P_j1&lt;/font&gt;" style="text;html=1;align=center;verticalAlign=middle;whiteSpace=wrap;rounded=0;" vertex="1" parent="1">
          <mxGeometry x="700" y="575" width="50" height="10" as="geometry" />
        </mxCell>
        <mxCell id="jxfU9SpQQoRf2CBo2mah-207" value="&lt;font style=&quot;font-size: 9px;&quot;&gt;P_j2&lt;/font&gt;" style="text;html=1;align=center;verticalAlign=middle;whiteSpace=wrap;rounded=0;" vertex="1" parent="1">
          <mxGeometry x="700" y="588" width="50" height="10" as="geometry" />
        </mxCell>
        <mxCell id="jxfU9SpQQoRf2CBo2mah-211" style="edgeStyle=none;rounded=0;orthogonalLoop=1;jettySize=auto;html=1;exitX=1;exitY=0.5;exitDx=0;exitDy=0;" edge="1" parent="1" source="jxfU9SpQQoRf2CBo2mah-208">
          <mxGeometry relative="1" as="geometry">
            <mxPoint x="1990" y="715" as="targetPoint" />
          </mxGeometry>
        </mxCell>
        <mxCell id="jxfU9SpQQoRf2CBo2mah-217" value="P_j1_sseg" style="edgeLabel;html=1;align=center;verticalAlign=middle;resizable=0;points=[];" vertex="1" connectable="0" parent="jxfU9SpQQoRf2CBo2mah-211">
          <mxGeometry x="0.7798" y="-2" relative="1" as="geometry">
            <mxPoint x="-22" y="-2" as="offset" />
          </mxGeometry>
        </mxCell>
        <mxCell id="jxfU9SpQQoRf2CBo2mah-208" value="Bin_to_sseg" style="rounded=0;whiteSpace=wrap;html=1;" vertex="1" parent="1">
          <mxGeometry x="1682" y="687" width="142" height="56" as="geometry" />
        </mxCell>
        <mxCell id="jxfU9SpQQoRf2CBo2mah-210" value="Bin" style="edgeLabel;html=1;align=center;verticalAlign=middle;resizable=0;points=[];" vertex="1" connectable="0" parent="1">
          <mxGeometry x="1699.9999445543958" y="700.0013265871894" as="geometry" />
        </mxCell>
        <mxCell id="jxfU9SpQQoRf2CBo2mah-212" value="sseg" style="edgeLabel;html=1;align=center;verticalAlign=middle;resizable=0;points=[];" vertex="1" connectable="0" parent="1">
          <mxGeometry x="1704.9999445543958" y="715.0013265871894" as="geometry">
            <mxPoint x="101" y="-1" as="offset" />
          </mxGeometry>
        </mxCell>
        <mxCell id="jxfU9SpQQoRf2CBo2mah-213" style="edgeStyle=none;rounded=0;orthogonalLoop=1;jettySize=auto;html=1;exitX=1;exitY=0.5;exitDx=0;exitDy=0;" edge="1" parent="1" source="jxfU9SpQQoRf2CBo2mah-214">
          <mxGeometry relative="1" as="geometry">
            <mxPoint x="1988" y="798" as="targetPoint" />
          </mxGeometry>
        </mxCell>
        <mxCell id="jxfU9SpQQoRf2CBo2mah-218" value="P_j2_sseg" style="edgeLabel;html=1;align=center;verticalAlign=middle;resizable=0;points=[];" vertex="1" connectable="0" parent="jxfU9SpQQoRf2CBo2mah-213">
          <mxGeometry x="0.4376" y="-1" relative="1" as="geometry">
            <mxPoint x="9" y="-1" as="offset" />
          </mxGeometry>
        </mxCell>
        <mxCell id="jxfU9SpQQoRf2CBo2mah-214" value="Bin_to_sseg" style="rounded=0;whiteSpace=wrap;html=1;" vertex="1" parent="1">
          <mxGeometry x="1680" y="770" width="142" height="56" as="geometry" />
        </mxCell>
        <mxCell id="jxfU9SpQQoRf2CBo2mah-215" value="Bin" style="edgeLabel;html=1;align=center;verticalAlign=middle;resizable=0;points=[];" vertex="1" connectable="0" parent="1">
          <mxGeometry x="1697.9999445543958" y="783.0013265871894" as="geometry" />
        </mxCell>
        <mxCell id="jxfU9SpQQoRf2CBo2mah-216" value="sseg" style="edgeLabel;html=1;align=center;verticalAlign=middle;resizable=0;points=[];" vertex="1" connectable="0" parent="1">
          <mxGeometry x="1702.9999445543958" y="798.0013265871894" as="geometry">
            <mxPoint x="101" y="-1" as="offset" />
          </mxGeometry>
        </mxCell>
        <mxCell id="jxfU9SpQQoRf2CBo2mah-225" value="&lt;font style=&quot;font-size: 9px;&quot;&gt;Addr&lt;/font&gt;" style="text;html=1;align=center;verticalAlign=middle;whiteSpace=wrap;rounded=0;" vertex="1" parent="1">
          <mxGeometry x="1570" y="325" width="50" height="10" as="geometry" />
        </mxCell>
        <mxCell id="jxfU9SpQQoRf2CBo2mah-226" value="&lt;font style=&quot;font-size: 9px;&quot;&gt;Addr&lt;/font&gt;" style="text;html=1;align=center;verticalAlign=middle;whiteSpace=wrap;rounded=0;" vertex="1" parent="1">
          <mxGeometry x="1570" y="220" width="50" height="10" as="geometry" />
        </mxCell>
        <mxCell id="jxfU9SpQQoRf2CBo2mah-227" value="&lt;font style=&quot;font-size: 9px;&quot;&gt;row&lt;/font&gt;" style="text;html=1;align=center;verticalAlign=middle;whiteSpace=wrap;rounded=0;" vertex="1" parent="1">
          <mxGeometry x="1665" y="340" width="50" height="10" as="geometry" />
        </mxCell>
        <mxCell id="jxfU9SpQQoRf2CBo2mah-228" value="&lt;font style=&quot;font-size: 9px;&quot;&gt;Col&lt;/font&gt;" style="text;html=1;align=center;verticalAlign=middle;whiteSpace=wrap;rounded=0;" vertex="1" parent="1">
          <mxGeometry x="1665" y="235" width="50" height="10" as="geometry" />
        </mxCell>
        <mxCell id="jxfU9SpQQoRf2CBo2mah-229" value="" style="triangle;whiteSpace=wrap;html=1;" vertex="1" parent="1">
          <mxGeometry x="399" y="45" width="10" height="10" as="geometry" />
        </mxCell>
        <mxCell id="jxfU9SpQQoRf2CBo2mah-230" value="" style="triangle;whiteSpace=wrap;html=1;" vertex="1" parent="1">
          <mxGeometry x="560" y="45" width="10" height="10" as="geometry" />
        </mxCell>
        <mxCell id="jxfU9SpQQoRf2CBo2mah-231" value="" style="triangle;whiteSpace=wrap;html=1;" vertex="1" parent="1">
          <mxGeometry x="720" y="45" width="10" height="10" as="geometry" />
        </mxCell>
        <mxCell id="jxfU9SpQQoRf2CBo2mah-232" value="&lt;font style=&quot;font-size: 7px;&quot;&gt;Max_tick&lt;/font&gt;" style="text;html=1;align=center;verticalAlign=middle;whiteSpace=wrap;rounded=0;" vertex="1" parent="1">
          <mxGeometry x="480" y="45" width="40" height="10" as="geometry" />
        </mxCell>
        <mxCell id="jxfU9SpQQoRf2CBo2mah-233" value="&lt;font style=&quot;font-size: 7px;&quot;&gt;Max_tick&lt;/font&gt;" style="text;html=1;align=center;verticalAlign=middle;whiteSpace=wrap;rounded=0;" vertex="1" parent="1">
          <mxGeometry x="640" y="45" width="40" height="10" as="geometry" />
        </mxCell>
        <mxCell id="jxfU9SpQQoRf2CBo2mah-234" value="&lt;font style=&quot;font-size: 7px;&quot;&gt;Count&lt;/font&gt;" style="text;html=1;align=center;verticalAlign=middle;whiteSpace=wrap;rounded=0;" vertex="1" parent="1">
          <mxGeometry x="810" y="45" width="40" height="10" as="geometry" />
        </mxCell>
      </root>
    </mxGraphModel>
  </diagram>
</mxfile>
